# xmcd CD database file
#
# Track frame offsets:
#	150
#	23156
#	44058
#	61849
#	91976
#	112618
#	143783
#	170008
#
# Disc length: 2682 seconds
#
# Revision: 0
# Processed by: cddbd v1.5.2PL0 Copyright (c) Steve Scherf et al.
# Submitted via: CDex 2.00
#
DISCID=630a7808
DTITLE=Andy Nowak Trio - Reset
DYEAR=2018
DGENRE=Jazz
TTITLE0=Safety In Numbers
TTITLE1=Fracture
TTITLE2=What A Moon Can Do
TTITLE3=Prelude
TTITLE4=Make Me A Pallet On Your Floor
TTITLE5=Syrinx
TTITLE6=Reset
TTITLE7=Dawn
EXTD=YEAR: 2018
EXTT0=
EXTT1=
EXTT2=
EXTT3=
EXTT4=
EXTT5=
EXTT6=
EXTT7=
PLAYORDER=
